# xmcd
#
# Track frame offsets: 
#        150
#        14084
#        29575
#        45893
#        62595
#        84821
#        100947
#        116833
#        136351
#        156198
#        169228
#        186214
#        208426
#        225263
#        235869
#        248629
#
# Disc length: 3534 seconds
#
# Revision: 0
# Processed by: cddbd v1.5.2PL0 Copyright (c) Steve Scherf et al.
# Submitted via: ExactAudioCopy v0.95a5
#
DISCID=d10dcc10
DTITLE=Various Artist - Texas Music Magazine TexMix 2007 Spring
DYEAR=2007
DGENRE=Country
TTITLE0=01 - Sick, Sober and Sorry - Merle Haggard and George Jones
TTITLE1=02 - Dangerous - Maren Morris
TTITLE2=03 - Wake Up Wanting Me - South First Band
TTITLE3=04 - Some Things - GFire
TTITLE4=05 - Caribbean Dream - Barry Horne
TTITLE5=06 - Monkey River Town Girl - Larry Joe Taylor
TTITLE6=07 - My Own Circumstance - J.R. Castillo
TTITLE7=08 - Live Forever - Billy Joe Shaver With Big and Rich
TTITLE8=09 - Summer Again - Texas Renegade
TTITLE9=10 - Texas Has It All - Jim Stricklan
TTITLE10=11 - Cowboy Cool - Sonny Burgess
TTITLE11=12 - Ruined - Fran Snyder
TTITLE12=13 - Trains I've Missed - Walt Wilkins
TTITLE13=14 - Hey Valerie - The Derailers
TTITLE14=15 - Really Never Loved Her Anyway - Trent Summar
TTITLE15=16 - Two Tons Of Steel - Two Tons Of Steel
EXTD=
EXTT0=
EXTT1=
EXTT2=
EXTT3=
EXTT4=
EXTT5=
EXTT6=
EXTT7=
EXTT8=
EXTT9=
EXTT10=
EXTT11=
EXTT12=
EXTT13=
EXTT14=
EXTT15=
PLAYORDER=
